<svg xmlns="http://www.w3.org/2000/svg" xmlns:xlink="http://www.w3.org/1999/xlink" preserveAspectRatio="xMidYMid" width="28.594" height="30" viewBox="0 0 28.594 30">
  <defs>
    <style>
      .cls-1 {
        fill: #0cc019;
        fill-rule: evenodd;
      }
    </style>
  </defs>
  <path d="M13.597,29.995 C13.520,30.002 4.309,30.006 4.309,30.006 C2.782,30.006 1.545,28.805 1.545,27.323 C1.545,26.057 2.449,24.998 3.664,24.715 C4.167,24.539 4.374,24.544 4.796,24.544 L6.389,24.544 L6.389,20.688 L5.398,20.688 C4.428,20.689 3.642,19.925 3.642,18.985 C3.642,18.044 4.428,17.281 5.398,17.281 L6.389,17.281 L6.389,5.552 L5.161,5.552 C4.530,5.552 4.380,5.545 3.581,5.263 C2.409,4.952 1.545,3.913 1.545,2.676 C1.545,1.194 2.782,-0.007 4.309,-0.007 C4.309,-0.007 13.520,-0.003 13.597,0.004 C21.915,0.247 28.583,6.864 28.583,15.000 C28.583,23.135 21.915,29.751 13.597,29.995 ZM15.518,5.549 C15.471,5.545 9.826,5.542 9.826,5.542 C8.890,5.542 8.132,6.278 8.132,7.186 C8.132,8.094 8.890,8.831 9.826,8.831 L15.310,8.831 C18.633,8.874 21.314,11.501 21.314,14.739 C21.314,17.975 18.633,20.603 15.310,20.646 L9.826,20.646 C8.890,20.646 8.132,21.383 8.132,22.291 C8.132,23.199 8.890,23.935 9.826,23.935 C9.826,23.935 15.471,23.933 15.518,23.928 C20.616,23.779 24.702,19.724 24.702,14.739 C24.702,9.753 20.616,5.698 15.518,5.549 ZM3.835,9.421 C4.804,9.421 5.590,10.184 5.590,11.125 C5.590,12.066 4.804,12.828 3.835,12.828 L1.755,12.828 C0.786,12.829 -0.000,12.066 -0.000,11.125 C-0.000,10.184 0.785,9.421 1.755,9.421 L3.835,9.421 Z" class="cls-1"/>
</svg>
